<svg xmlns="http://www.w3.org/2000/svg" width="430" height="430" style="width:100%;height:100%;transform:translate3d(0,0,0);content-visibility:visible" viewBox="0 0 430 430"><defs><clipPath id="k"><path d="M0 0h430v430H0z"/></clipPath><clipPath id="o"><path d="M0 0h430v430H0z"/></clipPath><clipPath id="f"><path d="M0 0h430v430H0z"/></clipPath><clipPath id="l"><path d="M0 0h430v430H0z"/></clipPath><clipPath id="i"><path d="M0 0h430v430H0z"/></clipPath><filter id="p" width="300%" height="300%" x="-100%" y="-100%"><feGaussianBlur result="filter_result_0"/></filter><filter id="b" width="100%" height="100%" x="0%" y="0%" filterUnits="objectBoundingBox"><feComponentTransfer in="SourceGraphic"><feFuncA tableValues="1.0 0.0" type="table"/></feComponentTransfer></filter><filter id="n" width="300%" height="300%" x="-100%" y="-100%"><feGaussianBlur result="filter_result_0" stdDeviation="52.5 52.5"/></filter><mask id="q" mask-type="alpha"><use xmlns:ns1="http://www.w3.org/1999/xlink" ns1:href="#a"/></mask><mask id="j" mask-type="alpha"><g filter="url(#b)"><path fill="#fff" d="M0 0h430v430H0z" opacity="0"/><use xmlns:ns2="http://www.w3.org/1999/xlink" ns2:href="#d"/></g></mask><mask id="m" mask-type="alpha"><use xmlns:ns3="http://www.w3.org/1999/xlink" ns3:href="#e"/></mask><g id="a" clip-path="url(#f)" style="display:none"><path fill-opacity="0" stroke-linecap="round" stroke-linejoin="round" class="primary" style="display:none"/><g style="display:none"><path/><path fill-opacity="0" stroke-linecap="round" stroke-linejoin="round" class="secondary"/><path fill-opacity="0" stroke-linecap="round" stroke-linejoin="round" class="secondary"/></g><g style="display:none"><path/><path fill-opacity="0" stroke-linecap="round" stroke-linejoin="round" class="secondary"/><path fill-opacity="0" stroke-linecap="round" stroke-linejoin="round" class="secondary"/></g><path fill-opacity="0" stroke-linecap="round" stroke-linejoin="round" class="primary" style="display:none"/><g fill-opacity="0" stroke-linecap="round" stroke-linejoin="round" style="display:none"><path class="primary"/><path class="primary"/><path class="primary"/><path class="secondary"/><path class="secondary"/><path class="primary"/></g></g><g id="e" clip-path="url(#i)" style="display:block"><g mask="url(#j)" style="display:block"><path fill-opacity="0" stroke="#121331" stroke-linecap="round" stroke-linejoin="round" stroke-width="12.04" d="m164.464 285.811-.001 21.798c0 5.95-4.868 10.818-10.818 10.818h-9.826c-5.95 0-10.818-4.868-10.818-10.818v-21.798m163.963-.188-.001 21.797c0 5.95-4.868 10.818-10.818 10.818h-9.826c-5.95 0-10.818-4.868-10.818-10.818v-21.797m-30.537-7.004-.1 72.182c0 5.95-4.868 10.818-10.818 10.818h-17.128c-5.95 0-10.82-4.868-10.82-10.818l.1-71.632" class="primary"/></g><g style="display:block"><path fill="red" d="m117.575 145.27-38.92-23.63m3.38-12.29c0 10.35-6.17 18.74-13.78 18.74s-13.78-8.39-13.78-18.74 6.17-18.74 13.78-18.74 13.78 8.39 13.78 18.74"/><path fill-opacity="0" stroke="#08A88A" stroke-linecap="round" stroke-linejoin="round" stroke-width="12.04" d="m117.58 145.274-38.926-23.639m3.377-12.285c0 10.348-6.17 18.737-13.78 18.737s-13.78-8.389-13.78-18.738 6.17-18.738 13.78-18.738 13.78 8.39 13.78 18.738" class="secondary"/></g><g style="display:block"><path fill="red" d="m312.645 145.27 38.93-23.63m-3.38-12.29c0 10.35 6.17 18.74 13.78 18.74s13.78-8.39 13.78-18.74-6.17-18.74-13.78-18.74-13.78 8.39-13.78 18.74"/><path fill-opacity="0" stroke="#08A88A" stroke-linecap="round" stroke-linejoin="round" stroke-width="12.04" d="m312.65 145.274 38.926-23.639M348.2 109.35c0 10.348 6.17 18.737 13.78 18.737s13.78-8.389 13.78-18.738-6.17-18.738-13.78-18.738-13.78 8.39-13.78 18.738" class="secondary"/></g><g fill-opacity="0" stroke-linecap="round" stroke-linejoin="round" stroke-width="12.04" style="display:block"><path stroke="#121331" d="M252.411 294.276h45.337c17.904-16.354 20.572-154.476 8.014-207.197-2.614-10.999-12.594-18.742-24.025-18.742H148.52c-11.44 0-21.43 7.743-24.035 18.751-12.45 52.622-10.214 190.555 7.961 207.188h45.32" class="primary"/><path stroke="#121331" d="M252.51 294.189c-13.227 13.227-63.069 14.55-74.826 0V258.75c0-13.646 11.062-24.708 24.708-24.708h25.41c13.646 0 24.708 11.062 24.708 24.708zm60.14-148.915H117.58" class="primary"/><path stroke="#08A88A" d="M141.26 183.615c0 8.09 6.558 14.65 14.65 14.65 8.09 0 14.65-6.56 14.65-14.65s-6.56-14.65-14.65-14.65c-8.092 0-14.65 6.559-14.65 14.65m118.375 0c0 8.09 6.56 14.65 14.65 14.65s14.65-6.56 14.65-14.65-6.559-14.65-14.65-14.65c-8.09 0-14.65 6.559-14.65 14.65" class="secondary"/><path stroke="#121331" d="M225.427 205.477h-20.66" class="primary"/></g></g><g id="d" style="display:block"><path fill-opacity="0" stroke="#121331" stroke-linecap="round" stroke-linejoin="round" stroke-width="0" d="M252.411 294.276h45.337c17.904-16.354 20.572-154.476 8.014-207.197-2.614-10.999-12.594-18.742-24.025-18.742H148.52c-11.44 0-21.43 7.743-24.035 18.751-12.45 52.622-10.214 190.555 7.961 207.188h45.32" class="primary"/><path fill="red" d="M252.411 294.276h45.337c17.904-16.354 20.572-154.476 8.014-207.197-2.614-10.999-12.594-18.742-24.025-18.742H148.52c-11.44 0-21.43 7.743-24.035 18.751-12.45 52.622-10.214 190.555 7.961 207.188h45.32"/><path fill-opacity="0" stroke="#121331" stroke-linecap="round" stroke-linejoin="round" stroke-width="0" d="M252.51 294.189c-13.227 13.227-63.069 14.55-74.826 0V258.75c0-13.646 11.062-24.708 24.708-24.708h25.41c13.646 0 24.708 11.062 24.708 24.708z" class="primary"/><path fill="red" d="M252.51 294.189c-13.227 13.227-63.069 14.55-74.826 0V258.75c0-13.646 11.062-24.708 24.708-24.708h25.41c13.646 0 24.708 11.062 24.708 24.708z"/><path fill-opacity="0" stroke="#121331" stroke-linecap="round" stroke-linejoin="round" stroke-width="0" d="M312.65 145.274H117.58" class="primary"/><path fill="red" d="M312.65 145.274H117.58"/><path fill-opacity="0" stroke="#08A88A" stroke-linecap="round" stroke-linejoin="round" stroke-width="0" d="M141.26 183.615c0 8.09 6.558 14.65 14.65 14.65 8.09 0 14.65-6.56 14.65-14.65s-6.56-14.65-14.65-14.65c-8.092 0-14.65 6.559-14.65 14.65" class="secondary"/><path fill="red" d="M141.26 183.615c0 8.09 6.558 14.65 14.65 14.65 8.09 0 14.65-6.56 14.65-14.65s-6.56-14.65-14.65-14.65c-8.092 0-14.65 6.559-14.65 14.65"/><path fill-opacity="0" stroke="#08A88A" stroke-linecap="round" stroke-linejoin="round" stroke-width="0" d="M259.635 183.615c0 8.09 6.56 14.65 14.65 14.65s14.65-6.56 14.65-14.65-6.559-14.65-14.65-14.65c-8.09 0-14.65 6.559-14.65 14.65" class="secondary"/><path fill="red" d="M259.635 183.615c0 8.09 6.56 14.65 14.65 14.65s14.65-6.56 14.65-14.65-6.559-14.65-14.65-14.65c-8.09 0-14.65 6.559-14.65 14.65"/><path fill-opacity="0" stroke="#121331" stroke-linecap="round" stroke-linejoin="round" stroke-width="0" d="M225.427 205.477h-20.66" class="primary"/><path fill="red" d="M225.427 205.477h-20.66"/></g></defs><g clip-path="url(#k)"><g clip-path="url(#l)" mask="url(#m)" style="display:block"><g filter="url(#n)" transform="rotate(-94 238.762 -16.565)scale(2.4)"><g class="design"><path fill="#4BE1EC" d="M0-250c137.975 0 250 112.025 250 250S137.975 250 0 250-250 137.975-250 0-137.975-250 0-250" class="primary"/></g><g class="design"><path fill="#CB5EEE" d="M113.242-295.384c97.478 0 176.5 79.022 176.5 176.5s-79.022 176.5-176.5 176.5c-43.948 0-74.396-34.057-105.29-60.631-37.631-32.369-71.21-62.338-71.21-115.869 0-97.478 79.022-176.5 176.5-176.5" class="secondary"/></g></g></g><g clip-path="url(#o)" filter="url(#p)" mask="url(#q)" style="display:none"><g class="design"><path class="primary"/></g><g class="design"><path class="secondary"/></g></g></g></svg>